<svg xmlns="http://www.w3.org/2000/svg" width="1040" height="260" viewBox="0 0 1040 260">
  <style>
    text{font-family:Arial,Helvetica,sans-serif;fill:#17212f}
    .box{fill:#fff;stroke:#095f78;stroke-width:2;rx:8}
    .decision{fill:#fff7df;stroke:#865400;stroke-width:2}
    .arrow{stroke:#667085;stroke-width:2;fill:none;marker-end:url(#a)}
    .muted{fill:#667085;font-size:13px}
    .title{font-weight:700;font-size:15px}
  </style>
  <defs><marker id="a" markerWidth="10" markerHeight="8" refX="9" refY="4" orient="auto"><path d="M0,0 L10,4 L0,8 Z" fill="#667085"/></marker></defs>
  <rect x="24" y="88" width="130" height="64" class="box"/><text x="89" y="113" text-anchor="middle" class="title">Admin/Ops</text><text x="89" y="135" text-anchor="middle" class="muted">mở danh sách</text>
  <rect x="198" y="88" width="142" height="64" class="box"/><text x="269" y="113" text-anchor="middle" class="title">CMS</text><text x="269" y="135" text-anchor="middle" class="muted">kiểm tra quyền</text>
  <polygon points="430,76 512,120 430,164 348,120" class="decision"/><text x="430" y="116" text-anchor="middle" class="title">Có quyền?</text>
  <rect x="570" y="88" width="150" height="64" class="box"/><text x="645" y="113" text-anchor="middle" class="title">Tenant Service</text><text x="645" y="135" text-anchor="middle" class="muted">query theo filter</text>
  <rect x="772" y="88" width="130" height="64" class="box"/><text x="837" y="113" text-anchor="middle" class="title">CMS</text><text x="837" y="135" text-anchor="middle" class="muted">render list</text>
  <rect x="430" y="184" width="150" height="50" class="box"/><text x="505" y="215" text-anchor="middle" class="title">Access denied</text>
  <path d="M154 120H198" class="arrow"/><path d="M340 120H348" class="arrow"/><path d="M512 120H570" class="arrow"/><path d="M720 120H772" class="arrow"/><path d="M430 164V184" class="arrow"/>
</svg>
