<svg xmlns="http://www.w3.org/2000/svg" width="1040" height="250" viewBox="0 0 1040 250">
  <style>text{font-family:Arial,Helvetica,sans-serif;fill:#17212f}.box{fill:#fff;stroke:#095f78;stroke-width:2;rx:8}.arrow{stroke:#667085;stroke-width:2;fill:none;marker-end:url(#a)}.muted{fill:#667085;font-size:13px}.title{font-weight:700;font-size:15px}</style>
  <defs><marker id="a" markerWidth="10" markerHeight="8" refX="9" refY="4" orient="auto"><path d="M0,0 L10,4 L0,8 Z" fill="#667085"/></marker></defs>
  <rect x="34" y="88" width="150" height="64" class="box"/><text x="109" y="113" text-anchor="middle" class="title">Mở Revenue</text><text x="109" y="135" text-anchor="middle" class="muted">Share tab</text>
  <rect x="238" y="88" width="174" height="64" class="box"/><text x="325" y="113" text-anchor="middle" class="title">Lấy Brand</text><text x="325" y="135" text-anchor="middle" class="muted">đã visibility</text>
  <rect x="466" y="88" width="170" height="64" class="box"/><text x="551" y="113" text-anchor="middle" class="title">Resolve status</text><text x="551" y="135" text-anchor="middle" class="muted">configured?</text>
  <rect x="690" y="88" width="154" height="64" class="box"/><text x="767" y="113" text-anchor="middle" class="title">Render list</text><text x="767" y="135" text-anchor="middle" class="muted">brand/cate/offer</text>
  <rect x="898" y="88" width="116" height="64" class="box"/><text x="956" y="113" text-anchor="middle" class="title">Action</text><text x="956" y="135" text-anchor="middle" class="muted">Sửa/Cấu hình</text>
  <path d="M184 120H238" class="arrow"/><path d="M412 120H466" class="arrow"/><path d="M636 120H690" class="arrow"/><path d="M844 120H898" class="arrow"/>
</svg>
